<?xml version="1.0" encoding="UTF-8" standalone="no"?>
<!-- Created with Inkscape (http://www.inkscape.org/) -->

<svg
   xmlns:dc="http://purl.org/dc/elements/1.1/"
   xmlns:cc="http://creativecommons.org/ns#"
   xmlns:rdf="http://www.w3.org/1999/02/22-rdf-syntax-ns#"
   xmlns:svg="http://www.w3.org/2000/svg"
   xmlns="http://www.w3.org/2000/svg"
   xmlns:sodipodi="http://sodipodi.sourceforge.net/DTD/sodipodi-0.dtd"
   xmlns:inkscape="http://www.inkscape.org/namespaces/inkscape"
   width="1020"
   height="396.78189"
   viewBox="0 0 1019.9999 396.7819"
   id="svg2"
   version="1.1"
   inkscape:version="0.91 r13725"
   sodipodi:docname="asu robotics logo_plain.svg">
  <defs
     id="defs4" />
  <sodipodi:namedview
     id="base"
     pagecolor="#ffffff"
     bordercolor="#666666"
     borderopacity="1.0"
     inkscape:pageopacity="0.0"
     inkscape:pageshadow="2"
     inkscape:zoom="0.6636364"
     inkscape:cx="9.8086906"
     inkscape:cy="5.4055675"
     inkscape:document-units="px"
     inkscape:current-layer="layer1"
     showgrid="false"
     fit-margin-top="10"
     fit-margin-left="10"
     fit-margin-right="10"
     fit-margin-bottom="10"
     inkscape:window-width="2560"
     inkscape:window-height="1377"
     inkscape:window-x="-8"
     inkscape:window-y="-8"
     inkscape:window-maximized="1"
     units="px" />
  <metadata
     id="metadata7">
    <rdf:RDF>
      <cc:Work
         rdf:about="">
        <dc:format>image/svg+xml</dc:format>
        <dc:type
           rdf:resource="http://purl.org/dc/dcmitype/StillImage" />
        <dc:title></dc:title>
      </cc:Work>
    </rdf:RDF>
  </metadata>
  <g
     inkscape:label="Layer 1"
     inkscape:groupmode="layer"
     id="layer1"
     transform="translate(-534.48558,-87.653944)">
    <g
       id="g4218"
       transform="matrix(1.365507,0,0,1.365507,183.25806,-317.44257)">
      <g
         id="g4215">
        <path
           style="fill:#8a0c3c;fill-opacity:1;fill-rule:evenodd;stroke:#000000;stroke-width:1.25;stroke-linecap:butt;stroke-linejoin:miter;stroke-miterlimit:4;stroke-dasharray:none;stroke-opacity:1"
           d="m 613.98818,306.75263 c 31.20613,1.28623 63.59126,-7.64372 93.80322,3.72903 17.43623,8.41173 10.30839,39.97331 -9.21118,39.62833 -22.32334,1.42134 -44.74209,6.79179 -67.11895,3.02549 -14.35864,-6.42769 -12.98971,-23.96626 -15.54207,-36.72789 z"
           id="path4315"
           inkscape:connector-curvature="0"
           sodipodi:nodetypes="ccccsc" />
        <path
           style="fill:#ffc627;fill-opacity:1;fill-rule:evenodd;stroke:#000000;stroke-width:1.25;stroke-linecap:butt;stroke-linejoin:miter;stroke-miterlimit:4;stroke-dasharray:none;stroke-opacity:1"
           d="m 712.49303,322.31267 c -3.64658,-2.08115 -10.99794,-1.23181 -10.84499,6.40659 0.1581,7.89534 7.04162,9.16473 10.84499,7.11042 3.96435,-2.14126 3.91322,-11.28368 0,-13.51701 z"
           id="path4317"
           inkscape:connector-curvature="0"
           sodipodi:nodetypes="asaa" />
        <path
           style="fill:#8a0c3c;fill-opacity:1;fill-rule:evenodd;stroke:#000000;stroke-width:1.25;stroke-linecap:butt;stroke-linejoin:miter;stroke-miterlimit:4;stroke-dasharray:none;stroke-opacity:1"
           d="m 641.0221,492.12786 c -3.3628,-31.58343 6.14187,-62.91015 1.1007,-94.67494 -2.1601,-13.61097 -10.74457,-29.63082 -0.51672,-41.59205 14.22293,-16.63338 43.48719,-4.83573 49.82663,14.4409 12.97371,39.44972 14.7428,81.25648 19.28069,122.1912 -0.15002,3.50143 -0.86054,6.97923 -2.10649,10.25535"
           id="path4313"
           inkscape:connector-curvature="0"
           sodipodi:nodetypes="cssscc" />
        <path
           style="fill:#8a0c3c;fill-opacity:1;fill-rule:evenodd;stroke:#000000;stroke-width:1.25;stroke-linecap:butt;stroke-linejoin:miter;stroke-miterlimit:4;stroke-dasharray:none;stroke-opacity:1"
           d="m 782.378,508.71056 c 20.7941,31.76616 3.85181,65.73478 -30.84244,66.08994 -55.13791,0.56446 -117.58768,11.4891 -171.30708,-2.98779 -16.62796,-4.48108 -23.85381,-33.69498 -17.2978,-50.28491 5.37216,-13.5942 13.01839,-21.71256 26.07249,-27.64462 26.09467,-11.85797 59.78036,-10.94136 91.61665,-9.83716 39.9694,1.38628 79.84655,3.90101 101.75818,24.66454 z"
           id="path4194"
           inkscape:connector-curvature="0"
           sodipodi:nodetypes="csssssc" />
        <g
           id="g4201"
           transform="matrix(0.79367476,0.60834231,-0.60834231,0.79367476,379.75122,-334.27307)"
           inkscape:transform-center-x="-36.619089"
           inkscape:transform-center-y="19.052079">
          <path
             style="fill:#ffc627;fill-opacity:1;stroke:#000000;stroke-width:1.25;stroke-miterlimit:4;stroke-dasharray:none;stroke-opacity:1"
             d="m 673.27008,388.47586 49.34931,0 0,15.82192 -49.34931,0 z"
             id="rect4164" />
          <path
             style="fill:#ffc627;fill-opacity:1;stroke:#000000;stroke-width:1.25;stroke-miterlimit:4;stroke-dasharray:none;stroke-opacity:1"
             d="m 678.54405,396.38681 a 12.054793,12.054793 0 0 1 -12.05479,12.05479 12.054793,12.054793 0 0 1 -12.0548,-12.05479 12.054793,12.054793 0 0 1 12.0548,-12.05479 12.054793,12.054793 0 0 1 12.05479,12.05479 z"
             id="path4155" />
          <path
             transform="matrix(0.91067102,-0.4131323,0.4131323,0.91067102,0,0)"
             style="fill:#ffc627;fill-opacity:1;stroke:#000000;stroke-width:1.25;stroke-miterlimit:4;stroke-dasharray:none;stroke-opacity:1"
             d="m 503.49689,651.66467 29.76027,0 0,15.82192 -29.76027,0 z"
             id="rect4164-3" />
          <path
             style="fill:#ffc627;fill-opacity:1;stroke:#000000;stroke-width:1.25;stroke-miterlimit:4;stroke-dasharray:none;stroke-opacity:1"
             d="m 735.05089,396.38681 a 12.054793,12.054793 0 0 1 -12.0548,12.05479 12.054793,12.054793 0 0 1 -12.05479,-12.05479 12.054793,12.054793 0 0 1 12.05479,-12.05479 12.054793,12.054793 0 0 1 12.0548,12.05479 z"
             id="path4155-2" />
        </g>
        <path
           style="fill:none;fill-rule:evenodd;stroke:#000000;stroke-width:5;stroke-linecap:butt;stroke-linejoin:miter;stroke-miterlimit:4;stroke-dasharray:none;stroke-opacity:1"
           d="m 749.93103,428.78407 15.06849,3.39041"
           id="path4211"
           inkscape:connector-curvature="0"
           sodipodi:nodetypes="cc" />
        <path
           style="fill:none;fill-rule:evenodd;stroke:#000000;stroke-width:5;stroke-linecap:butt;stroke-linejoin:miter;stroke-miterlimit:4;stroke-dasharray:none;stroke-opacity:1"
           d="m 778.18446,422.75667 c -12.97623,-3.78596 -19.78023,20.14876 -6.40411,23.73288"
           id="path4213"
           inkscape:connector-curvature="0"
           sodipodi:nodetypes="cc" />
      </g>
      <g
         style="font-style:normal;font-weight:normal;font-size:40px;line-height:125%;font-family:sans-serif;letter-spacing:0px;word-spacing:0px;fill:#000000;fill-opacity:1;stroke:none;stroke-width:1px;stroke-linecap:butt;stroke-linejoin:miter;stroke-opacity:1"
         id="text4136" />
      <g
         id="g4148"
         inkscape:label="ink_ext_XXXXXX"
         transform="matrix(1.2499943,0,0,-1.2499943,219.53745,616.18069)">
        <g
           id="g4150"
           transform="scale(0.1,0.1)">
          <path
             d="m 2046.05,1053.76 6.52,0 c 4.18,0 6.89,0.87 6.89,5.23 0,3.81 -3.41,4.91 -6.89,4.91 l -6.52,0 0,-10.14 z m -5.46,14.43 12.85,0 c 7.67,0 11.49,-3.09 11.49,-9.44 0,-5.39 -3.41,-9.28 -8.64,-9.28 l 9.52,-14.83 -5.79,0 -9.37,14.83 -4.6,0 0,-14.83 -5.46,0 0,33.55 z m 11.01,-41.16 c 13.17,0 23.09,10.63 23.09,24.35 0,13.72 -9.92,24.34 -23.09,24.34 -13.31,0 -23.24,-10.62 -23.24,-24.34 0,-13.72 9.93,-24.35 23.24,-24.35 z m -0.07,52.97 c 15.77,0 28.63,-12.84 28.63,-28.62 0,-15.78 -12.86,-28.63 -28.63,-28.63 -15.78,0 -28.63,12.85 -28.63,28.63 0,15.78 12.85,28.62 28.63,28.62"
             style="fill:#8a0c3c;fill-opacity:1;fill-rule:nonzero;stroke:none"
             id="path4152"
             inkscape:connector-curvature="0" />
          <path
             d="m 644.75,625.398 73.156,293.997 73.559,-293.997 -146.715,0 z m 1374.12,-221.5 c -24.33,26.032 -22.95,53.575 -22.95,53.575 l 0,622.527 -236.58,0 0,-497.852 c -2.95,-47.16 -49.15,-59.199 -74.78,-58.386 -36.69,1.16 -57.94,21.66 -57.94,56.902 l -0.05,499.136 -230.44,0 -0.03,0.2 c -53.88,0 -96.19,-0.2 -162.38,-0.2 -126.07,0 -245.142,-19.28 -285.24,-123.862 l -23.816,92.722 c -5.848,18.2 -25.746,31.32 -45.391,31.32 l -30.945,0 -308.289,-0.03 -72.82,0 c -5.926,0 -8.063,-1.85 -4.953,-6.06 0,0 11.14,-10.69 31.402,-33.78 28.133,-32.04 17.086,-74.899 17.086,-74.899 L 360,363.789 l 219.516,0 31.652,132.141 211.859,0 33.024,-132.149 225.589,0 c 22.1,-0.011 44.65,-0.011 63.56,-0.011 118.6,0 215.11,12.089 262.82,85.949 35.59,-67.34 112.16,-98.989 247.2,-87.36 47.06,4.051 93.26,26.039 113.11,60.911 l 9.11,-28.981 c 7.91,-17.488 23.98,-30.41 46.87,-30.41 l 220.99,0 c 5.9,0 8.05,1.742 4.94,5.93 0,0 -11.78,13.113 -31.37,34.089"
             style="fill:#8a0c3c;fill-opacity:1;fill-rule:nonzero;stroke:none"
             id="path4154"
             inkscape:connector-curvature="0" />
          <path
             d="m 939.719,906.008 0.187,1.527 c 0.852,6.313 1.989,12.625 3.348,18.828 l 0.121,0.551 -39.57,23.93 c -1.891,1.258 -4.586,1.027 -6.102,-0.571 -0.75,-0.796 -1.137,-1.89 -1.043,-2.949 0.102,-1.07 0.703,-2.058 1.488,-2.789 l 41.571,-38.527"
             style="fill:#fbc622;fill-opacity:1;fill-rule:nonzero;stroke:none"
             id="path4156"
             inkscape:connector-curvature="0" />
          <path
             d="m 859.098,893.367 79.793,-51.929 -0.176,1.667 c -0.871,8.208 -1.309,16.723 -1.309,25.317 0,0.363 0.035,2.469 0.035,2.469 l -73.961,29.597 c -2.031,0.883 -4.734,0.266 -5.906,-1.57 -0.578,-0.875 -0.754,-1.984 -0.484,-3 0.289,-1.07 1.015,-1.988 2.008,-2.551"
             style="fill:#fbc622;fill-opacity:1;fill-rule:nonzero;stroke:none"
             id="path4158"
             inkscape:connector-curvature="0" />
          <path
             d="m 830.492,836.992 125.227,-54.797 -0.934,1.961 c -5.23,11.02 -9.332,22.985 -12.195,35.532 l -0.113,0.507 -109.055,24.317 c -2.199,0.578 -4.621,-0.407 -5.426,-2.403 -0.406,-0.964 -0.367,-2.031 0.074,-3 0.461,-0.988 1.348,-1.765 2.422,-2.117"
             style="fill:#fbc622;fill-opacity:1;fill-rule:nonzero;stroke:none"
             id="path4160"
             inkscape:connector-curvature="0" />
          <path
             d="m 1142.94,657.766 c -68.64,23.562 -146.471,50.3 -183.659,117.621 l -0.203,0.39 -144.172,9.082 c -2.273,0.246 -4.625,-1.211 -5.035,-3.312 -0.203,-0.996 0.027,-2.031 0.625,-2.902 0.633,-0.918 1.785,-1.649 2.91,-1.821 l 144.477,-37.097 c 0.445,-0.086 0.972,-0.258 1.195,-0.61 0.16,-0.25 0.219,-0.519 0.195,-0.789 -0.05,-0.754 -0.765,-1.211 -1.597,-1.144 L 808.082,723.176 c -2.297,-0.129 -4.336,-1.926 -4.336,-4.106 0,-0.996 0.414,-1.961 1.18,-2.715 0.789,-0.82 1.969,-1.296 3.133,-1.355 L 957.48,700.984 c 0.786,-0.046 1.45,-0.449 1.524,-1.113 0.039,-0.359 -0.055,-0.73 -0.305,-1.023 -0.222,-0.262 -0.492,-0.364 -0.855,-0.442 L 813.043,661.25 c -1.156,-0.266 -1.934,-0.84 -2.563,-1.738 -0.621,-0.86 -0.851,-1.907 -0.656,-2.903 0.426,-2.105 2.828,-3.472 5.055,-3.296 l 149.746,9.414 c 0.82,0.132 1.566,-0.2 1.77,-0.872 0.105,-0.312 0.054,-0.734 -0.141,-1.062 -0.18,-0.305 -0.434,-0.48 -0.77,-0.59 l -135,-58.941 c -1.082,-0.449 -2.05,-1.321 -2.504,-2.324 -0.457,-0.958 -0.457,-1.958 -0.054,-2.915 0.808,-1.98 3.387,-2.957 5.644,-2.468 l 145.473,32.617 c 1.285,0.254 1.781,-0.086 2.117,-0.774 0.141,-0.23 0.149,-0.527 0.035,-0.835 -0.125,-0.364 -0.414,-0.668 -0.797,-0.813 L 859.121,544.844 c -1.109,-0.614 -1.836,-1.582 -2.125,-2.637 -0.281,-1.023 -0.101,-2.109 0.481,-3.008 1.175,-1.844 4.066,-2.519 6.023,-1.511 l 136.83,54.683 c 0.65,0.402 1.6,0.274 2.05,-0.32 0.26,-0.313 0.37,-0.774 0.29,-1.184 -0.03,-0.222 -0.12,-0.484 -0.41,-0.672 L 898.09,493.652 c -0.801,-0.754 -1.449,-1.922 -1.551,-2.988 -0.094,-1.062 0.297,-2.012 1.027,-2.832 1.516,-1.594 4.508,-1.836 6.239,-0.527 l 124.155,75.156 c 0.56,0.508 1.51,0.508 2.08,0 0.68,-0.606 0.59,-0.969 0.56,-1.106 -0.03,-0.359 -0.36,-0.808 -0.36,-0.808 L 946.152,448.879 c -0.656,-0.832 -0.839,-1.606 -0.746,-2.641 0.09,-1.093 0.703,-2.066 1.625,-2.73 1.762,-1.367 4.617,-1.02 6.145,0.43 l 107.704,93.308 c 0.48,0.598 1.52,0.82 2.14,0.399 0.52,-0.36 0.75,-0.77 0.78,-1.153 0.03,-0.222 -0.11,-0.613 -0.26,-0.867 l -60.95,-122.523 c -0.51,-0.903 -0.67,-2.012 -0.4,-3 0.28,-1.082 1.05,-2.032 2.1,-2.571 2.01,-1.051 4.86,-0.34 6,1.43 0,0 88.61,109.418 88.81,109.32 17.77,-8.164 35.18,-13.398 49.1,-14.734 41.96,-4.035 81.2,5.379 102.38,24.605 10.99,10.012 16.57,21.985 16.57,35.61 0,51.343 -57.57,71.109 -124.21,94.004"
             style="fill:#fbc622;fill-opacity:1;fill-rule:nonzero;stroke:none"
             id="path4162"
             inkscape:connector-curvature="0" />
          <path
             d="m 1430,493.32 -0.46,-1.484 c -1.98,-6.223 -4.24,-12.316 -6.7,-18.086 l -0.25,-0.535 34.03,-29.621 c 1.61,-1.438 4.28,-1.59 6.08,-0.227 0.91,0.703 1.47,1.723 1.56,2.805 0.11,1.047 -0.24,1.965 -0.88,2.844 L 1430,493.32"
             style="fill:#fbc622;fill-opacity:1;fill-rule:nonzero;stroke:none"
             id="path4164"
             inkscape:connector-curvature="0" />
          <path
             d="m 1441.22,558.809 -0.11,-1.7 c -0.66,-9.738 -1.7,-19.218 -3.09,-28.269 l -0.09,-0.52 68.22,-41.3 c 1.74,-1.297 4.49,-0.934 6,0.668 0.77,0.789 1.12,1.863 1.04,2.957 -0.07,0.996 -0.59,1.96 -1.39,2.675 l -70.58,65.489"
             style="fill:#fbc622;fill-opacity:1;fill-rule:nonzero;stroke:none"
             id="path4166"
             inkscape:connector-curvature="0" />
          <path
             d="m 1550.84,544.551 -111.26,72.383 0.26,-1.766 c 1.43,-9.707 2.16,-19.863 2.16,-30.285 l -0.05,-5.567 104.5,-41.882 c 2,-0.918 4.66,-0.239 5.84,1.582 0.58,0.906 0.75,2.007 0.48,3.027 -0.28,1.031 -0.96,1.844 -1.93,2.508"
             style="fill:#fbc622;fill-opacity:1;fill-rule:nonzero;stroke:none"
             id="path4168"
             inkscape:connector-curvature="0" />
          <path
             d="m 1604.93,721.582 c -0.78,0.789 -1.85,1.262 -3.05,1.356 l -149.55,14.027 c -0.74,-0.063 -1.36,0.433 -1.43,1.137 -0.04,0.375 0.08,0.738 0.3,1.015 0.17,0.176 0.42,0.391 0.83,0.426 l 144.48,37.043 c 1.14,0.195 2.25,0.918 2.89,1.844 0.6,0.867 0.84,1.89 0.63,2.898 -0.43,2.106 -2.68,3.461 -5.07,3.289 l -149.89,-9.422 c -0.75,-0.183 -1.48,0.192 -1.69,0.883 -0.1,0.34 -0.06,0.723 0.12,1.035 0.11,0.196 0.33,0.438 0.71,0.539 l 135.22,59.02 c 1.08,0.332 1.98,1.226 2.44,2.223 0.44,0.968 0.48,2.035 0.08,2.984 -0.81,2 -3.46,2.894 -5.65,2.375 l -145.85,-32.566 c -0.76,-0.325 -1.76,-0.141 -2.05,0.453 -0.14,0.277 -0.21,0.703 -0.06,1.011 0.13,0.289 0.39,0.539 0.71,0.766 l 121.81,79.191 c 0.97,0.582 1.75,1.536 2.03,2.59 0.25,1.016 0.09,2.121 -0.48,3.012 -1.17,1.824 -3.83,2.457 -5.95,1.531 l -137.51,-54.926 c -0.67,-0.421 -1.48,-0.32 -1.92,0.243 -0.24,0.304 -0.34,0.691 -0.28,1.066 0.04,0.207 0.15,0.492 0.45,0.688 0.01,0 104.7,97.042 104.7,97.042 0.76,0.688 1.36,1.704 1.45,2.758 0.1,1.078 -0.29,2.141 -1.04,2.953 -1.5,1.61 -4.08,1.969 -5.81,0.664 l -125.2,-75.628 c -0.52,-0.489 -1.42,-0.508 -2.03,0.035 -0.25,0.234 -0.39,0.472 -0.39,0.769 0,0.305 0.12,0.688 0.36,0.934 l 84.22,111.793 c 0.64,0.801 1.05,1.898 1,2.953 -0.06,1.102 -0.68,2.137 -1.58,2.809 -1.81,1.359 -4.76,1.113 -6.21,-0.457 l -108.22,-93.743 c -0.49,-0.601 -1.36,-0.894 -2,-0.476 -0.36,0.215 -0.59,0.457 -0.65,0.816 -0.03,0.168 -0.03,0.551 0.13,0.883 l 61.37,123.382 c 0.55,0.86 0.69,2 0.42,2.99 -0.29,1.09 -1.05,2.03 -2.11,2.57 -2.02,1.03 -4.83,0.44 -5.96,-1.36 l -90.36,-111.086 -0.01,0 c -24.99,12.176 -66.77,19.375 -86.16,19.375 -0.36,0 -0.95,0.012 -1.71,0.035 -39.72,0.981 -69.27,-6.851 -85.46,-22.652 -9.37,-9.125 -14.11,-20.91 -14.11,-35.024 0,-19.41 10.97,-35.308 34.45,-50.039 21.02,-13.164 50.2,-24.175 81.09,-35.839 40.31,-15.223 86.01,-32.481 123.44,-58.29 42.93,-29.589 68.21,-65.785 77.34,-110.695 l 0.1,-0.488 138.4,-31.004 c 2.16,-0.559 4.39,0.555 5.21,2.527 0.4,0.977 0.37,2.063 -0.09,3.008 -0.48,0.977 -1.32,1.594 -2.41,2.117 l -134.96,59.028 c -0.31,0.086 -0.57,0.281 -0.76,0.574 -0.19,0.344 -0.25,0.769 -0.13,1.125 0.19,0.664 0.99,1.055 1.77,0.855 l 149.79,-9.48 c 2.33,-0.203 4.5,1.23 4.92,3.34 0.19,1.015 -0.03,2.031 -0.64,2.898 -0.63,0.93 -1.61,1.508 -2.8,1.801 l -144.41,37.066 c -0.4,0.051 -0.76,0.207 -0.99,0.5 -0.22,0.274 -0.31,0.567 -0.29,0.899 0.06,0.625 0.72,1.308 1.55,1.219 l 149.38,14.015 c 1.19,0.07 2.35,0.535 3.13,1.328 0.78,0.774 1.19,1.746 1.19,2.742 0,1 -0.41,1.973 -1.19,2.727"
             style="fill:#fbc622;fill-opacity:1;fill-rule:nonzero;stroke:none"
             id="path4170"
             inkscape:connector-curvature="0" />
        </g>
      </g>
      <g
         style="font-style:normal;font-weight:normal;font-size:124.30939484px;line-height:125%;font-family:sans-serif;letter-spacing:0px;word-spacing:0px;fill:#ffc627;fill-opacity:1;stroke:none;stroke-width:1px;stroke-linecap:butt;stroke-linejoin:miter;stroke-opacity:1"
         id="text4184">
        <path
           d="m 479.55627,569.06805 22.00276,0 0,-31.32596 13.79834,0 17.40332,31.32596 24.24033,0 -20.26243,-35.05525 c 5.96685,-2.23756 18.02486,-6.58839 18.02486,-24.24033 0,-7.9558 -2.85911,-14.91712 -6.96132,-19.51657 -8.08011,-8.70166 -19.51658,-8.82597 -28.71547,-8.95028 l -39.53039,0 0,87.76243 z m 40.64917,-71.35359 c 4.59945,0.12431 12.67956,0.49724 12.67956,11.68508 0,11.68509 -10.06906,11.93371 -13.1768,12.05802 l -18.14917,0 0,-23.7431 18.64641,0 z"
           style="font-style:normal;font-variant:normal;font-weight:bold;font-stretch:normal;font-family:'Berthold Akzidenz Grotesk';-inkscape-font-specification:'Berthold Akzidenz Grotesk';fill:#ffc627;fill-opacity:1"
           id="path4254" />
        <path
           d="m 600.75598,502.1896 c -24.86188,-1.3674 -37.41713,14.41989 -37.41713,34.30939 0,23.99172 16.65746,34.43371 34.93094,34.43371 25.35912,0 34.80664,-18.02487 34.80664,-34.43371 0,-11.80939 -5.84255,-32.81768 -32.32045,-34.30939 z m -3.60497,15.16575 c 2.73481,-0.24862 7.20995,-0.12431 11.18785,3.60497 3.60497,3.48066 5.3453,9.07458 5.3453,16.28453 0,10.19337 -5.09669,18.5221 -15.41437,18.5221 -10.6906,0 -15.66298,-9.07459 -15.66298,-19.39227 0,-4.47513 0.87017,-8.95027 3.23205,-12.67955 2.61049,-4.10221 5.84254,-5.96686 11.31215,-6.33978 z"
           style="font-style:normal;font-variant:normal;font-weight:bold;font-stretch:normal;font-family:'Berthold Akzidenz Grotesk';-inkscape-font-specification:'Berthold Akzidenz Grotesk';fill:#ffc627;fill-opacity:1"
           id="path4256" />
        <path
           d="m 645.63167,481.18131 0,87.88674 18.39779,0 -0.74586,-6.83701 c 2.36188,2.61049 7.58288,8.57735 19.01934,8.57735 12.92818,0 20.88398,-8.20442 24.24033,-15.53868 2.85912,-5.71823 3.9779,-13.42541 3.9779,-20.01381 0,-25.85636 -17.15469,-33.0663 -27.59668,-33.0663 -11.06354,0 -15.9116,4.97238 -18.64641,7.83149 l 0,-28.83978 -18.64641,0 z m 32.19613,35.05525 c 10.81492,-0.62155 14.04696,9.32321 14.04696,19.64089 0,2.85911 -0.37292,11.31215 -3.85359,15.9116 -1.61602,1.98895 -4.84806,4.84806 -9.94475,4.84806 -4.35083,0 -8.82597,-2.11325 -11.31215,-6.09116 -2.23757,-3.85359 -2.98343,-9.82044 -2.98343,-14.54419 0,-3.8536 0.12431,-19.01934 14.04696,-19.7652 z"
           style="font-style:normal;font-variant:normal;font-weight:bold;font-stretch:normal;font-family:'Berthold Akzidenz Grotesk';-inkscape-font-specification:'Berthold Akzidenz Grotesk';fill:#ffc627;fill-opacity:1"
           id="path4258" />
        <path
           d="m 756.14274,502.1896 c -24.86188,-1.3674 -37.41713,14.41989 -37.41713,34.30939 0,23.99172 16.65746,34.43371 34.93094,34.43371 25.35912,0 34.80663,-18.02487 34.80663,-34.43371 0,-11.80939 -5.84254,-32.81768 -32.32044,-34.30939 z m -3.60497,15.16575 c 2.7348,-0.24862 7.20994,-0.12431 11.18784,3.60497 3.60498,3.48066 5.34531,9.07458 5.34531,16.28453 0,10.19337 -5.09669,18.5221 -15.41437,18.5221 -10.69061,0 -15.66298,-9.07459 -15.66298,-19.39227 0,-4.47513 0.87016,-8.95027 3.23204,-12.67955 2.6105,-4.10221 5.84254,-5.96686 11.31216,-6.33978 z"
           style="font-style:normal;font-variant:normal;font-weight:bold;font-stretch:normal;font-family:'Berthold Akzidenz Grotesk';-inkscape-font-specification:'Berthold Akzidenz Grotesk';fill:#ffc627;fill-opacity:1"
           id="path4260" />
        <path
           d="m 803.25599,505.54595 -9.44752,0 0,11.68509 9.44752,0 0,31.32596 c 0,6.21547 0.12431,10.81492 2.7348,14.66851 4.10221,5.96685 11.31216,6.33978 17.90056,6.33978 3.48066,0 5.96685,-0.37293 10.06906,-0.99447 l 0,-14.91713 -6.83702,0.24862 c -5.09668,0 -5.09668,-3.35636 -4.97237,-7.33426 l 0,-29.2127 12.67955,0 0,-11.68509 -12.55524,0 0,-20.26243 -19.01934,0 0,20.13812 z"
           style="font-style:normal;font-variant:normal;font-weight:bold;font-stretch:normal;font-family:'Berthold Akzidenz Grotesk';-inkscape-font-specification:'Berthold Akzidenz Grotesk';fill:#ffc627;fill-opacity:1"
           id="path4262" />
        <path
           d="m 845.08804,495.97413 18.89503,0 0,-14.79282 -18.89503,0 0,14.79282 z m 0,73.09392 18.89503,0 0,-65.01381 -18.89503,0 0,65.01381 z"
           style="font-style:normal;font-variant:normal;font-weight:bold;font-stretch:normal;font-family:'Berthold Akzidenz Grotesk';-inkscape-font-specification:'Berthold Akzidenz Grotesk';fill:#ffc627;fill-opacity:1"
           id="path4264" />
        <path
           d="m 923.52341,546.31943 c -0.62155,1.86465 -1.2431,3.35636 -2.85912,5.221 -3.9779,4.47514 -8.70165,4.47514 -9.69613,4.47514 -10.19337,0 -14.41989,-10.81492 -14.41989,-19.39227 0,-7.83149 3.48066,-19.64088 13.79834,-19.64088 2.98343,0 5.34531,0.99447 7.20995,2.23757 3.10773,2.23757 4.35083,4.47514 5.46961,6.83701 l 14.17127,-8.08011 c -8.20442,-13.54972 -20.51105,-15.53867 -27.72099,-15.53867 -21.62984,0 -32.56906,15.9116 -32.56906,34.80663 0,26.4779 19.76519,33.93646 32.19613,33.93646 7.33425,0 13.67403,-2.36187 18.64641,-5.84254 5.22099,-3.72928 7.83149,-7.83149 10.19337,-11.56077 l -14.41989,-7.45857 z"
           style="font-style:normal;font-variant:normal;font-weight:bold;font-stretch:normal;font-family:'Berthold Akzidenz Grotesk';-inkscape-font-specification:'Berthold Akzidenz Grotesk';fill:#ffc627;fill-opacity:1"
           id="path4266" />
        <path
           d="m 934.71125,558.12883 c 4.10221,3.85359 13.42542,12.55525 31.45028,12.55525 15.29005,0 30.70442,-7.45857 30.70442,-22.74862 0,-15.41437 -15.16575,-18.89503 -28.21823,-21.25691 -6.21547,-1.11878 -10.31768,-1.86464 -10.31768,-5.59392 0,-1.86464 1.74033,-4.84807 9.19889,-4.84807 4.47514,0 10.19337,1.74033 16.28453,6.46409 l 11.80939,-10.93923 c -4.47513,-3.10773 -13.67403,-9.69613 -28.96408,-9.69613 -18.14918,0 -27.34807,11.06354 -27.34807,21.75414 0,4.84807 1.98895,9.32321 4.84806,12.18233 2.85912,2.85911 6.83702,4.47513 10.81492,5.59392 2.85912,0.87016 5.84254,1.49171 8.70166,1.98895 3.72928,0.62155 8.20442,0.99447 11.06354,2.48619 1.11878,0.62154 2.48618,1.49171 2.48618,3.72928 0,4.84806 -6.96132,6.33978 -11.56077,6.33978 -7.20994,0 -13.67403,-3.85359 -18.89503,-8.95028 l -12.05801,10.93923 z"
           style="font-style:normal;font-variant:normal;font-weight:bold;font-stretch:normal;font-family:'Berthold Akzidenz Grotesk';-inkscape-font-specification:'Berthold Akzidenz Grotesk';fill:#ffc627;fill-opacity:1"
           id="path4268" />
      </g>
    </g>
  </g>
</svg>
