<?xml version="1.0" encoding="UTF-8"?>
<svg id="Layer_2" data-name="Layer 2" xmlns="http://www.w3.org/2000/svg" viewBox="0 0 249.74 70.25">
  <defs>
    <style>
      .cls-1 {
        letter-spacing: -.01em;
      }

      .cls-2 {
        letter-spacing: 0em;
      }

      .cls-3 {
        fill: #9e1f63;
      }

      .cls-4 {
        font-family: MyriadPro-Bold, 'Myriad Pro';
        font-size: 24px;
        font-weight: 700;
      }

      .cls-4, .cls-5 {
        fill: #00aeef;
      }

      .cls-6 {
        letter-spacing: 0em;
      }

      .cls-7 {
        fill: #231f20;
        stroke-width: .5px;
      }

      .cls-7, .cls-8 {
        stroke: #231f20;
      }

      .cls-7, .cls-8, .cls-5 {
        stroke-miterlimit: 10;
      }

      .cls-9 {
        letter-spacing: 0em;
      }

      .cls-10 {
        fill: #8c0b42;
      }

      .cls-8 {
        letter-spacing: 0em;
        stroke-width: .24px;
      }

      .cls-11 {
        fill: #8ed5e3;
        opacity: .08;
      }

      .cls-12 {
        fill: #ffca38;
      }

      .cls-13 {
        letter-spacing: 0em;
      }

      .cls-14 {
        letter-spacing: .02em;
      }

      .cls-5 {
        font-family: BradleyHandITC, 'Bradley Hand ITC';
        font-size: 15.49px;
        stroke: #00aeef;
      }

      .cls-15 {
        letter-spacing: 0em;
      }
    </style>
  </defs>
  <g id="Layer_1-2" data-name="Layer 1">
    <rect class="cls-11" x="69.24" width="180.51" height="65.93"/>
    <rect class="cls-10" width="66.24" height="66.24" rx="1.69" ry="1.69"/>
    <g>
      <path class="cls-12" d="M36.95,3.66c2.24-.16,4.55.77,6.59,2.37,1.46,1.15,2.37,2.74,3.12,4.41.82,1.84,1.64,3.67,2.45,5.51,1.26,2.87,2.55,5.74,3.76,8.64.65,1.55,1.24,3.15,1.99,4.63.78,1.56.58,2.99.17,4.48-.51,1.82-1.12,3.6-2.09,5.26-.92,1.57-2.04,2.96-3.36,4.21-2.06,1.96-4.51,3.16-7.23,3.82-1.91.47-3.86.56-5.83.53-1.24-.02-2.51.09-3.71-.18-.78-.18-1.58-.07-2.33-.34-.64-.23-1.03-.19-1.49.53-.79,1.24-1.91,2.25-3.21,3.01-1.56.91-3.23,1.39-5.05,1.38-1.3,0-2.61.03-3.91-.11-.9-.1-1.77-.39-2.61-.76-.37-.16-.5-.47-.52-.78-.09-1.06-.15-2.12-.17-3.18-.05-2.31,0-4.63-.34-6.93-.36-2.44-.27-4.91-.24-7.37.01-.74.6-1.29,1.17-1.71,1.69-1.25,3.62-1.94,5.72-1.8,1.57.11,3.1.52,4.51,1.3,1.01.56,2,1.12,2.84,1.93.34.33.65.16.85-.24.65-1.34,1.78-2.18,3-2.96,1.3-.82,2.72-.89,4.17-.8,1.21.07,2.28.59,3.38,1.04.22.09.4.23.57.37.15.12.27.24.5.1.26-.16.11-.31.04-.48-.59-1.37-1.2-2.74-1.78-4.11-.4-.94-.73-1.91-1.15-2.83-.78-1.7-1.51-3.41-2.17-5.15-.13-.34-.41-.25-.69-.13-.99.44-1.98.86-2.97,1.28-.86.37-2.32.02-2.71-1.18-.37-1.14-1.03-2.17-1.52-3.27-.61-1.36-1.15-2.75-1.76-4.1-.21-.47-.51-.91-.59-1.43-.19-1.22.51-2.25,1.78-2.42,1.11-.14,2.11-.61,3.18-.88,1.43-.36,2.86-.74,4.27-1.19.97-.31,1.95-.44,3.38-.46Z"/>
      <g>
        <path class="cls-3" d="M23.51,38.8c0,.55,0,1.1,0,1.65,0,.26.25.59.51.63.21.03.42.07.63.06.25-.02.39-.16.39-.41,0-.27,0-.53.08-.79.14-.42.43-.68.85-.76.5-.1,1.02-.07,1.52,0,.36.05.51.32.37.63-.09.19-.27.21-.45.22-.24.02-.49,0-.73.01-.17,0-.35.02-.52.05-.15.02-.19.14-.2.27,0,.17,0,.34-.01.5-.1.79-.58,1.14-1.35,1.19-.29.02-.58-.02-.82.18-.13.11-.22.23-.22.38,0,.56-.09,1.13-.01,1.69.04.32.33.59.65.59.15,0,.31,0,.46,0,.26,0,.41-.14.41-.41,0-.3-.02-.6.12-.89.16-.34.42-.54.76-.61.53-.1,1.08-.08,1.62-.02.25.03.33.14.31.41-.01.24-.16.4-.37.41-.38,0-.76,0-1.15.01-.33.01-.43.11-.42.43.01.38-.02.74-.24,1.08-.2.3-.49.42-.81.49-.24.05-.48.07-.72.09-.37.03-.65.33-.66.69,0,.31,0,.61.01.92.01.4.19.53.57.41.28-.09.56-.11.85-.12.17,0,.33.02.38.21.04.2.06.41-.15.53-.52.31-1.08.42-1.68.24-.27-.08-.56-.12-.83-.02-.57.23-1.1.09-1.62-.16-.25-.12-.36-.37-.28-.63.05-.15.28-.27.5-.21.25.06.5.13.75.15.46.04.55-.09.56-.44,0-.31,0-.61-.01-.92-.01-.34-.32-.65-.66-.66-.22,0-.46,0-.68-.05-.66-.15-1.15-.8-1.08-1.41.02-.14.04-.3-.08-.44-.08-.1-.16-.15-.28-.16-.38-.01-.76-.03-1.14-.04-.26,0-.47-.2-.47-.43,0-.26.16-.38.47-.4.43-.03.85-.03,1.28,0,.63.05,1.09.44,1.13,1.12.01.17.02.34.04.5.02.21.12.31.34.31.26,0,.54.02.78-.09.26-.12.34-.37.35-.62.04-.48,0-.97-.03-1.45-.03-.46-.19-.61-.64-.65-.22-.02-.44-.02-.66-.05-.54-.08-1.14-.71-1.11-1.32.04-.72-.01-.63-.69-.68-.24-.02-.49,0-.73,0-.14,0-.28-.03-.37-.14-.11-.12-.23-.26-.15-.45.07-.18.22-.3.39-.31.63-.03,1.27-.11,1.87.16.26.12.43.33.51.6.08.26.1.52.1.79,0,.29.1.4.4.4.27,0,.54.07.8-.12.18-.13.25-.29.28-.49.09-.77.05-1.54.06-2.31,0-.35,0-.7-.02-1.05-.02-.47-.28-.74-.76-.77-.34-.02-.69-.03-1.03-.04-.22,0-.47-.22-.48-.41-.02-.19.19-.4.42-.45.33-.07.67-.05,1-.05.44,0,.79-.24.83-.69.02-.3.04-.59-.07-.88-.11-.29-.36-.37-.63-.4-.17-.02-.35,0-.52.06-.18.07-.37.08-.56.07-.16,0-.27-.06-.34-.21-.07-.16-.07-.3.04-.45.24-.3.6-.35.94-.39.41-.06.82-.02,1.19.2.05.03.1.04.13.08.17.21.37.17.54.03.42-.35.92-.35,1.41-.31.31.03.62.17.89.34.14.09.15.27.11.43-.04.16-.14.25-.32.28-.26.03-.5-.06-.74-.11-.71-.15-1.14.2-1.13.9,0,.23-.02.45.1.67.14.23.33.35.59.37.39.04.78-.01,1.16.06.38.07.51.37.32.69-.05.09-.12.11-.22.13-.41.1-.84.04-1.25.1-.49.06-.69.27-.71.76-.02.56,0,1.12,0,1.67h0Z"/>
        <path class="cls-3" d="M18.07,42.18c-.35.01-.7-.01-1.04-.1-.49-.12-.84-.41-1.11-.84-.22-.35-.23-.74-.23-1.12-.02-1.25.25-2.44.81-3.55.14-.28.28-.58.5-.81.17-.18.35-.22.55-.1.23.14.28.31.16.56-.16.34-.36.67-.5,1.02-.31.76-.51,1.55-.58,2.37-.03.32-.07.63.02.95.12.4.5.68.91.69.42,0,.84.01,1.25.09.2.04.27.18.27.36,0,.2-.09.35-.28.43-.24.09-.48.03-.72.05Z"/>
        <path class="cls-3" d="M28.05,42.23c-.21,0-.4-.05-.6-.06-.22,0-.44-.27-.44-.45,0-.23.19-.42.48-.44.33-.03.67-.07,1.01-.04.61.05,1.01-.49,1.01-1.04,0-.43-.07-.85-.13-1.27-.08-.57-.26-1.1-.43-1.64-.09-.28-.24-.55-.4-.81-.08-.13-.13-.27-.21-.4-.1-.19.21-.5.47-.48.14.01.27.07.35.2.4.63.7,1.31.9,2.02.13.45.2.9.28,1.36.07.44.1.88.07,1.32-.07.87-.64,1.41-1.46,1.6-.3.07-.61.1-.9.13Z"/>
        <path class="cls-3" d="M25.46,38.13c-.22.02-.44-.02-.67,0-.18.03-.48-.27-.5-.46-.02-.2.24-.45.51-.46.32-.02.64-.03.96,0,.41.03.71-.1.87-.49.13-.31.27-.62.42-.93.23-.49-.03-.88-.39-1.21-.22-.2-.45-.39-.65-.6-.15-.16-.16-.42,0-.59.16-.16.35-.17.55-.02.07.05.16.09.23.15.27.26.61.45.84.77.39.57.51,1.17.27,1.83-.16.44-.32.88-.55,1.28-.21.36-.54.64-1,.69-.3.04-.6.09-.9.06Z"/>
        <path class="cls-3" d="M20.66,37.2c.24.01.47.01.71.04.25.02.4.16.43.37.04.26-.15.49-.46.5-.42.01-.85.04-1.27.04-.5,0-.84-.26-1.15-.61-.46-.52-.68-1.16-.8-1.81-.12-.67.12-1.27.62-1.74.23-.22.48-.41.73-.6.23-.18.45-.17.63.01.17.18.17.42-.04.62-.24.25-.51.48-.76.72-.32.31-.42.68-.24,1.09.15.34.33.68.49,1.02.13.27.35.4.66.37.15-.01.31,0,.46,0,0,0,0,0,0-.01Z"/>
        <path class="cls-3" d="M18.63,45.9c-.26.04-.52.03-.78,0-.22-.02-.39-.14-.56-.28-.42-.33-.61-.8-.79-1.27-.17-.44-.32-.88-.44-1.34-.05-.19-.04-.38.14-.51.16-.12.33-.11.5-.03.16.07.21.23.26.38.2.57.38,1.15.63,1.71.13.29.34.45.67.44.33,0,.65-.03.98.03.26.05.42.19.42.4,0,.28-.12.4-.41.46-.2.04-.41,0-.62,0Z"/>
        <path class="cls-3" d="M27.57,45.91c-.21,0-.41,0-.62,0-.18,0-.31-.08-.43-.19-.22-.22-.09-.59.23-.67.12-.03.26-.04.39-.04.26,0,.52.02.78-.01.29-.03.53-.13.65-.47.21-.57.41-1.14.59-1.71.12-.38.52-.52.76-.29.15.14.17.33.11.53-.17.56-.39,1.1-.57,1.65-.17.5-.46.85-.92,1.1-.1.05-.2.1-.32.1-.22,0-.44,0-.66,0,0,0,0,.01,0,.02Z"/>
        <path class="cls-3" d="M25.19,46.28c.19-.03.33.05.45.18.12.12.22.25.37.34.25.16.43.16.67,0,.1-.07.19-.14.29-.22.21-.15.49-.17.61-.03.14.17.24.42,0,.67-.47.51-1.23.84-1.95.36-.3-.2-.56-.41-.77-.7-.09-.13-.16-.25-.07-.42.09-.16.23-.21.39-.19Z"/>
        <path class="cls-3" d="M21.31,46.75c-.01.25-.26.47-.51.66-.31.24-.67.39-1.06.41-.34.01-.64-.13-.91-.33-.12-.09-.22-.21-.32-.32-.16-.17-.17-.38-.04-.54.16-.2.34-.22.57-.11.16.08.3.2.44.31.19.14.38.13.56,0,.15-.1.3-.21.41-.36.14-.19.33-.22.55-.19.24.03.31.12.32.47Z"/>
      </g>
    </g>
    <text class="cls-4" transform="translate(71.95 28.22) scale(.91 1)"><tspan x="0" y="0">Ro</tspan><tspan class="cls-15" x="28.08" y="0">b</tspan><tspan x="42.5" y="0">otic</tspan><tspan class="cls-8" x="82.56" y="0"> </tspan><tspan class="cls-1" x="87.41" y="0">A</tspan><tspan class="cls-14" x="102.81" y="0">c</tspan><tspan x="114.02" y="0">tu</tspan><tspan class="cls-9" x="136.82" y="0">a</tspan><tspan class="cls-6" x="149.3" y="0">t</tspan><tspan x="157.99" y="0">ors</tspan><tspan x="0" y="28.8">&amp; </tspan><tspan class="cls-13" x="21.12" y="28.8">D</tspan><tspan x="38.06" y="28.8">ynamics </tspan><tspan class="cls-2" x="130.65" y="28.8">L</tspan><tspan x="143.01" y="28.8">ab</tspan></text>
    <line class="cls-7" x1="75.19" y1="29.78" x2="246.05" y2="29.78"/>
    <line class="cls-7" x1="75.19" y1="59.27" x2="232.13" y2="59.27"/>
    <text class="cls-5" transform="translate(13.68 63.59)"><tspan x="0" y="0">RADL</tspan></text>
  </g>
</svg>